<?xml version="1.0" encoding="UTF-8"?>
<svg version="1.1" xmlns="http://www.w3.org/2000/svg" width="500" height="500">
<path d="M0 0 C165 0 330 0 500 0 C500 165 500 330 500 500 C335 500 170 500 0 500 C0 335 0 170 0 0 Z " fill="#FEFEFE" transform="translate(0,0)"/>
<path d="M0 0 C23.43 0 46.86 0 71 0 C71 25.08 71 50.16 71 76 C64.73 76 58.46 76 52 76 C52 82.6 52 89.2 52 96 C34.84 96 17.68 96 0 96 C0 64.32 0 32.64 0 0 Z " fill="#0DC26A" transform="translate(216,168)"/>
<path d="M0 0 C3.94235952 3.7500493 6.39668929 6.65511536 6.72265625 12.125 C6.32246191 19.30897651 4.64977908 23.35022092 -0.4375 28.4375 C-1.4275 28.4375 -2.4175 28.4375 -3.4375 28.4375 C-3.4375 29.0975 -3.4375 29.7575 -3.4375 30.4375 C-0.4675 29.7775 2.5025 29.1175 5.5625 28.4375 C6.2225 30.4175 6.8825 32.3975 7.5625 34.4375 C4.98839181 36.90864386 3.68652615 37.42642624 0.0625 37.75 C-3.4375 37.4375 -3.4375 37.4375 -5.359375 36.42578125 C-7.81238701 35.25921727 -9.48903094 35.23313326 -12.1875 35.3125 C-13.38632813 35.33957031 -13.38632813 35.33957031 -14.609375 35.3671875 C-15.21265625 35.39039063 -15.8159375 35.41359375 -16.4375 35.4375 C-16.2725 34.81875 -16.1075 34.2 -15.9375 33.5625 C-15.36115356 31.47686614 -15.36115356 31.47686614 -15.4375 29.4375 C-16.93581948 28.03534007 -16.93581948 28.03534007 -18.8125 26.625 C-22.55560501 23.47927943 -24.03867759 21.31788404 -24.71875 16.40625 C-25.14431483 10.19300355 -23.42152685 6.1650639 -19.4375 1.4375 C-14.28684893 -3.4101716 -6.07503539 -2.76137972 0 0 Z " fill="#08C168" transform="translate(176.4375,279.5625)"/>
<path d="M0 0 C4.40608743 2.16298837 7.1987497 4.39680479 9 9 C9.68426057 14.04325384 9.5739862 17.83076884 7.3125 22.4375 C4.28115306 25.79656012 2.25860352 27.69355631 -2.33203125 28.31640625 C-8.04951809 28.58213652 -11.60250453 27.96847152 -16 24 C-19.38570467 20.16286804 -19.51291172 16.36598538 -19.3515625 11.4375 C-18.67904883 6.77473854 -16.30117669 4.14809708 -12.875 1.125 C-8.55651358 -0.56484251 -4.5732948 -0.65960983 0 0 Z " fill="#010101" transform="translate(257,175)"/>
<path d="M0 0 C2.31 0 4.62 0 7 0 C7.33 3.63 7.66 7.26 8 11 C8.54527344 10.2059375 9.09054687 9.411875 9.65234375 8.59375 C15.73833767 0.35425053 15.73833767 0.35425053 19.6015625 -0.73046875 C22.0625 -0.6875 22.0625 -0.6875 26 0 C22.46386286 4.78775956 18.85516296 9.46451416 15 14 C16.86170826 18.5151775 20.21383395 21.62433031 23.54296875 25.109375 C27 28.79821884 27 28.79821884 27 31 C23.36710937 31.64454511 21.49192903 31.95606256 18 31 C14.18182934 27.68880636 11.09601224 23.98151052 8 20 C7.67 23.63 7.34 27.26 7 31 C4.69 31 2.38 31 0 31 C0 20.77 0 10.54 0 0 Z " fill="#07C067" transform="translate(254,278)"/>
<path d="M0 0 C2.31 0 4.62 0 7 0 C7.02505615 0.6612085 7.0501123 1.32241699 7.07592773 2.00366211 C7.19153102 4.98182305 7.31441754 7.9596392 7.4375 10.9375 C7.47681641 11.97841797 7.51613281 13.01933594 7.55664062 14.09179688 C7.59853516 15.08115234 7.64042969 16.07050781 7.68359375 17.08984375 C7.72025146 18.00628662 7.75690918 18.92272949 7.79467773 19.86694336 C7.77003864 21.9820728 7.77003864 21.9820728 9 23 C10.99958364 23.04080783 13.00045254 23.04254356 15 23 C16.20270964 20.59458071 16.20316663 18.89633409 16.31640625 16.2109375 C16.35830078 15.26992188 16.40019531 14.32890625 16.44335938 13.359375 C16.48267578 12.37453125 16.52199219 11.3896875 16.5625 10.375 C16.60568359 9.38242187 16.64886719 8.38984375 16.69335938 7.3671875 C16.79961069 4.91160162 16.90164964 2.45591297 17 0 C19.31 0 21.62 0 24 0 C24.08732726 3.89569135 24.14050185 7.79112982 24.1875 11.6875 C24.21263672 12.79029297 24.23777344 13.89308594 24.26367188 15.02929688 C24.27333984 16.09599609 24.28300781 17.16269531 24.29296875 18.26171875 C24.3086792 19.24100342 24.32438965 20.22028809 24.34057617 21.22924805 C23.93924264 24.49429052 22.90789907 26.34579801 21 29 C16.59008594 32.07668423 11.14399843 31.64014203 6 31 C2.99802536 29.19881522 1.54833634 28.09667268 0 25 C-0.084915 23.1136088 -0.107193 21.22421485 -0.09765625 19.3359375 C-0.09443359 18.21445312 -0.09121094 17.09296875 -0.08789062 15.9375 C-0.07951172 14.761875 -0.07113281 13.58625 -0.0625 12.375 C-0.05798828 11.19164062 -0.05347656 10.00828125 -0.04882812 8.7890625 C-0.03701467 5.85932493 -0.02054258 2.92968728 0 0 Z " fill="#08C168" transform="translate(186,278)"/>
<path d="M0 0 C1.04929688 -0.01417969 2.09859375 -0.02835937 3.1796875 -0.04296875 C6.06047071 0.18245063 7.68740208 0.69785683 10.125 2.1875 C9.465 4.1675 8.805 6.1475 8.125 8.1875 C7.30515625 8.14109375 6.4853125 8.0946875 5.640625 8.046875 C4.56296875 8.01078125 3.4853125 7.9746875 2.375 7.9375 C1.30765625 7.89109375 0.2403125 7.8446875 -0.859375 7.796875 C-3.96200031 7.94393178 -3.96200031 7.94393178 -6.234375 9.984375 C-8.61588203 13.18239872 -8.4298473 15.3035689 -7.875 19.1875 C-6.71574462 21.84927841 -6.71574462 21.84927841 -3.875 23.1875 C-1.02326584 23.29422658 1.72339128 23.18438325 4.56640625 22.9375 C7.125 23.1875 7.125 23.1875 9.02734375 25 C9.38957031 25.721875 9.75179687 26.44375 10.125 27.1875 C9.125 30.1875 9.125 30.1875 7.125 31.1875 C1.27024289 31.68078755 -4.06484281 32.04494288 -9.4375 29.5 C-10.241875 28.736875 -11.04625 27.97375 -11.875 27.1875 C-12.638125 26.506875 -13.40125 25.82625 -14.1875 25.125 C-16.75137863 20.66195202 -17.19036735 16.29344756 -16.875 11.1875 C-13.36556784 3.7637012 -8.0247773 0.04905121 0 0 Z " fill="#0BC169" transform="translate(240.875,277.8125)"/>
<path d="M0 0 C1.04929687 -0.02578125 2.09859375 -0.0515625 3.1796875 -0.078125 C6.43056586 0.28404182 7.74850767 1.06867854 10.125 3.25 C9.465 4.9 8.805 6.55 8.125 8.25 C7.30515625 8.20359375 6.4853125 8.1571875 5.640625 8.109375 C4.56296875 8.07328125 3.4853125 8.0371875 2.375 8 C1.30765625 7.95359375 0.2403125 7.9071875 -0.859375 7.859375 C-3.96200031 8.00643178 -3.96200031 8.00643178 -6.234375 10.046875 C-8.61588203 13.24489872 -8.4298473 15.3660689 -7.875 19.25 C-6.71574462 21.91177841 -6.71574462 21.91177841 -3.875 23.25 C-1.02326584 23.35672658 1.72339128 23.24688325 4.56640625 23 C7.125 23.25 7.125 23.25 9.02734375 25.0625 C9.38957031 25.784375 9.75179688 26.50625 10.125 27.25 C9.125 30.25 9.125 30.25 7.125 31.25 C1.27024289 31.74328755 -4.06484281 32.10744288 -9.4375 29.5625 C-10.241875 28.799375 -11.04625 28.03625 -11.875 27.25 C-12.638125 26.569375 -13.40125 25.88875 -14.1875 25.1875 C-16.75137863 20.72445202 -17.19036735 16.35594756 -16.875 11.25 C-13.37289301 3.84169676 -8.0109707 0.11752035 0 0 Z " fill="#0AC169" transform="translate(308.875,277.75)"/>
<path d="M0 0 C2.64 0 5.28 0 8 0 C10.31 5.94 12.62 11.88 15 18 C15.763125 16.14375 16.52625 14.2875 17.3125 12.375 C19.06652448 8.15936162 20.86933816 4.03704348 23 0 C25.64 0 28.28 0 31 0 C22.48087538 21.60739583 22.48087538 21.60739583 18 31 C16.02 31 14.04 31 12 31 C10.28651265 26.90844133 8.57763792 22.81499689 6.87304688 18.71972656 C6.2922869 17.32629239 5.71026074 15.93338525 5.12695312 14.54101562 C4.28964617 12.54173168 3.45688311 10.54060824 2.625 8.5390625 C2.12226563 7.33459473 1.61953125 6.13012695 1.1015625 4.88916016 C0 2 0 2 0 0 Z " fill="#08C168" transform="translate(319,278)"/>
<path d="M0 0 C17.49 0 34.98 0 53 0 C53 1.98 53 3.96 53 6 C35.51 6 18.02 6 0 6 C0 4.02 0 2.04 0 0 Z " fill="#A1ACA7" transform="translate(224,216)"/>
<path d="M0 0 C3 0.25 3 0.25 5 2.25 C5.31537716 6.58643601 5.44897847 8.57653229 3 12.25 C3.804375 12.600625 4.60875 12.95125 5.4375 13.3125 C8 15.25 8 15.25 8.875 18.875 C8.91625 19.98875 8.9575 21.1025 9 22.25 C7.17883997 24.07116003 4.69328236 23.3823508 2.2734375 23.38671875 C1.52320313 23.38285156 0.77296875 23.37898438 0 23.375 C-1.12535156 23.38080078 -1.12535156 23.38080078 -2.2734375 23.38671875 C-7.87338947 23.37661053 -7.87338947 23.37661053 -9 22.25 C-8.875 18.875 -8.875 18.875 -8 15.25 C-5.4375 13.3125 -5.4375 13.3125 -3 12.25 C-3.66 11.26 -4.32 10.27 -5 9.25 C-5.25 5.6875 -5.25 5.6875 -5 2.25 C-3 0.25 -3 0.25 0 0 Z " fill="#FBFBFA" transform="translate(252,176.75)"/>
<path d="M0 0 C2.4375 1.5 2.4375 1.5 4 4 C4.47365406 8.26288651 4.3308522 10.94127297 3.0625 15 C0.63449455 17.35442952 -0.20894375 17.39660936 -3.5 17.5625 C-6.37817264 17.37530178 -7.67282002 17.22803453 -10.0625 15.5625 C-11.48656025 11.67006864 -11.66005013 8.08781045 -11 4 C-8.21093968 -0.57405892 -5.10245628 -0.72892233 0 0 Z " fill="#F8FDFA" transform="translate(171,285)"/>
<path d="M0 0 C2.31 0 4.62 0 7 0 C7 10.23 7 20.46 7 31 C4.69 31 2.38 31 0 31 C0 20.77 0 10.54 0 0 Z " fill="#07C067" transform="translate(214,278)"/>
<path d="M0 0 C7.92 0 15.84 0 24 0 C24 1.98 24 3.96 24 6 C16.08 6 8.16 6 0 6 C0 4.02 0 2.04 0 0 Z " fill="#7F8783" transform="translate(224,235)"/>
<path d="M0 0 C12.21 0 24.42 0 37 0 C37 0.99 37 1.98 37 3 C24.79 3 12.58 3 0 3 C0 2.01 0 1.02 0 0 Z " fill="#151515" transform="translate(226,227)"/>
<path d="M0 0 C3 0.25 3 0.25 5 2.25 C5.35173852 6.04877599 5.52701444 8.39360153 3.5 11.6875 C3.005 12.203125 2.51 12.71875 2 13.25 C-0.375 12.9375 -0.375 12.9375 -3 12.25 C-5.44897847 8.57653229 -5.31537716 6.58643601 -5 2.25 C-3 0.25 -3 0.25 0 0 Z " fill="#F5F5F4" transform="translate(252,176.75)"/>
<path d="M0 0 C4.29 0 8.58 0 13 0 C8.98528179 4.89599781 4.89599781 8.98528179 0 13 C0 8.71 0 4.42 0 0 Z " fill="#161616" transform="translate(273,249)"/>
<path d="M0 0 C4.29 0 8.58 0 13 0 C13 1.98 13 3.96 13 6 C8.71 6 4.42 6 0 6 C0 4.02 0 2.04 0 0 Z " fill="#C2C2C2" transform="translate(224,244)"/>
<path d="M0 0 C7.92 0 15.84 0 24 0 C23.67 0.99 23.34 1.98 23 3 C16.07 2.67 9.14 2.34 2 2 C2 2.66 2 3.32 2 4 C1.34 4 0.68 4 0 4 C0 2.68 0 1.36 0 0 Z " fill="#FCFCFC" transform="translate(224,235)"/>
<path d="M0 0 C1.98 0 3.96 0 6 0 C5.67 0.99 5.34 1.98 5 3 C4.01 3.33 3.02 3.66 2 4 C2.33 5.32 2.66 6.64 3 8 C1.02 8 -0.96 8 -3 8 C-3 6.35 -3 4.7 -3 3 C-2.34 3 -1.68 3 -1 3 C-0.67 2.01 -0.34 1.02 0 0 Z " fill="#D0D0D0" transform="translate(248,190)"/>
<path d="M0 0 C1.32 0.33 2.64 0.66 4 1 C4 2.65 4 4.3 4 6 C2.02 6 0.04 6 -2 6 C-1.34 4.02 -0.68 2.04 0 0 Z " fill="#F0F0EF" transform="translate(255,192)"/>
</svg>
